<svg height="73" viewBox="0 0 196 73" width="196" xmlns="http://www.w3.org/2000/svg"><g fill="none" fill-rule="evenodd"><path d="m92.6581144 39.0418818.6714931-4.6353504.1723726-.9112963c.3247019-1.7158562.660539-3.4909108 1.0213189-5.2260513.3456361-1.6660758 1.1990365-5.3933316 1.4146136-6.7463735.0824004-.5188828.168364-1.056153.3955217-1.5611331.6404957-1.4203128 2.0199222-1.02476 3.0439136-.8032145 2.5134331.5435488 2.2252551 2.5832022 2.0568911 3.9775036-.138522 1.1355326-.80307 3.7869027-.989695 4.542579-.107789.4404001-.226713.9225082-.358553 1.5692057-.0873.4300852-.175936.8592735-.2659083 1.2880133.0930901-.1950856.1852893-.3888257.2765983-.5821174.641386-1.3543873 1.24714-2.6347766 2.042638-3.8824274.818213-1.2839771 1.581641-2.2827256 2.401636-3.142896 1.068977-1.1207331 3.008726-2.4746719 4.958719-2.603832.870772-.056956 1.262285-.0215267 2.204321.2045035.933574.2237878 1.700565.711726 2.279149 1.449912.342518.4368123.627579.9314776.845829 1.4705416 1.052943 2.5948625 1.377199 5.5328066.965197 8.7317617-.009799.0713072-.020043.1421658-.031178.2130245.258781-.6780906.499747-1.2965343.678355-1.645446l.338064-.6628425c1.290791-2.5392519 2.510316-4.9381319 5.752436-8.4003404 1.667159-1.7804363 3.260381-2.7899481 4.870529-3.086837 1.934403-.3560873 5.573827 1.5279462 6.281133 3.2518749.350536.8543403.514891 1.7983751.501974 2.8868182-.015143 1.2620019-.165691 2.6136983-.474358 4.2533142-.216914 1.1507807-.489058 2.3271244-.751403 3.4644509-.244974 1.0615347-.497965 2.1602925-.705079 3.2263119-.139413.7233864-.442735 2.0979549-.763874 3.5528-.57413 2.6060744-1.289454 5.8485313-1.317069 6.4853624-.061912 1.4552936.062357 2.2221818.909967 2.3724201.012026.0022424.025388.0031393.039196.0031393 1.010183 0 5.843298-5.7678062 6.969733-7.5742538.226421-.3625062 1.340564-1.9338849 1.760263-2.5504229.153084-.9887781.330576-2.1446568.42348-2.7821855.391513-3.0671042 1.858685-9.3937073 3.338773-14.3982131 1.171422-3.9573223 2.174479-7.637937 2.980666-10.5951654 1.480534-5.43279721 2.157108-7.8576886 2.671553-8.40078893.524244-.55386367 1.819043-.66060015 2.945924-.24307215 1.440893.53323393 2.224364 1.73244968 2.148199 3.28954658-.007126.15248069-.156783.91488412-1.210617 5.4067858l-.03875.1663833c-.634706 2.7042898-4.005103 14.9085749-5.525278 20.3992251 1.215071-2.2549203 3.22564-5.6381977 5.783169-7.9859518.947826-.8709338 2.076043-1.514492 3.353917-1.9127356 1.644444-.5130527 3.21495-.491526 4.666532.0641316 1.961128.7520885 3.267953 2.1477353 3.884843 4.1483716.260117.8449224.421355 1.7409706.491729 2.7379253.105562 1.4970015-.062802 2.9522951-.220476 4.0532954-.309558 2.1580502-.828903 4.314755-1.544673 6.4082251-2.846598 8.3330695-8.666735 15.7360069-16.728162 15.7360069-3.702226 0-4.864293-1.7028505-5.092787-2.3831835-.055676-.1659348-.091309-.3412876-.107343-.5215736-.036969-.4108009.166582-.8310197.530034-1.0956186.365234-.2663927.811978-.318864 1.163404-.138578 1.230215.6265162 3.026097.1013548 4.556517-.7991782 4.605957-2.709223 7.683721-8.6582122 8.892557-11.9136749.742494-1.9957031 1.660924-5.1175209 2.091633-7.1060484.045876-.2143699.113133-.5013924.190634-.8355045.334055-1.4369062.893487-3.8425133.818658-4.7654699-.038305-.4632723-.505091-.7000658-.901949-.688854-.178609.0053817-.523799.0811736-.701962.1610017-.665884.2968889-4.009111 2.3351969-7.944285 7.9846063-1.690321 2.4262368-3.354808 4.9874639-4.083494 7.278262-.332274 1.0440442-1.329986 4.4582662-1.586096 5.8418042-.234729 1.2700744-.853845 1.8746155-1.986962 2.6083167-.74383.4803141-1.59144.5605907-2.213228.2058489-1.301241-.741353-1.297385-3.5122848-1.285497-4.7227199-1.697901 2.4616745-5.994647 8.3063459-9.211328 9.0247382-.755411.1681773-2.422571.1224331-3.888851-1.1175937-1.191465-1.0081664-2.605188-3.1397567-2.576682-7.57246.016035-2.4495574.489948-4.7255559 1.038245-7.3612294l.199542-.9637676c.236957-1.1489868.597737-2.5800629.946491-3.9631525.334055-1.3220972.678355-2.6894902.906849-3.7824179.097544-.4686539.164355-.9651131.229385-1.4458757l.028506-.2121276c.046768-.3489117.050776-1.7867149-.465005-2.1961703-.175491-.1385781-.405321-.1412689-.706862-.0089695-.228494.1076334-2.0511 1.7198925-3.928492 4.6143347-1.422186 2.1916856-2.553966 4.1304327-3.79977 7.0181478-1.182556 2.7406161-1.730407 4.2501749-2.424352 6.1611167-.241411.6650849-.500192 1.3777079-.80886 2.2046914-.283724.761058-.557204 1.6844631-.821776 2.577372-.20177.6807815-.392404 1.3238912-.586602 1.8979361-.058348.1740074-.113133.3475663-.168363.5215737-.058349.1834253-.117143.367299-.1795.5520698-.057012.1663833-.128277.3372514-.211568.5090164-.546515 1.1256662-2.122366 1.8952452-3.26929 1.9625161-.832021.048435-2.327253.0304961-2.959731-.6484914-.263236-.2816408-.439172-.6175468-.522463-.999197-.050776-.2318603-.106898-.5031862-.133622-.7884148-.016926-.1847707.001336-.3933105.052558-.6018503.159901-.6552184.368797-1.5409518.587937-2.4679447.291297-1.2359905.60041-2.5455305.833803-3.4814929.439172-1.7562187.841374-3.5554908 1.230215-5.2951161.226267-1.0113057.452534-2.0235084.687709-3.036608 1.736643-7.4885956.996821-10.2121698.720669-10.4843926-.324702-.3224519-.534044-.2511447-1.020874-.041708-2.486709 1.0691587-4.626891 5.8924816-5.90521 8.7743666l-.312676.7014111c-1.140242 2.539252-2.912963 6.9490831-4.3026342 11.077722-.1509931.4484726-.3478632.9996454-.547851 1.5615816-.2454195.6866115-.4966292 1.3907135-.6774645 1.9441287-.3117852.9534528-.9798961 2.1060274-2.0096778 2.2872103-.5309255.0937308-1.1264351.1255724-1.58565.0040363l-.0668111-.0183874c-1.0876846-.2852286-1.8217159-.7879664-2.1824958-1.4938622-.4191283-.818911-.2596725-1.7077837-.1184783-2.4917139.0329601-.1807344.0650294-.359675.0904176-.5359247.0316352-.2258401.0629171-.4522425.093873-.6790383-.6863882 1.0529591-1.4155097 2.1366423-2.0464495 3.0155806-.4529792.6323463-2.8229915 3.7806241-5.0090506 3.7806241-.6756828-.0017939-1.3562652-.1251239-2.0315027-.3641598-1.3228597-.4708962-2.4109897-1.3969922-3.2363295-2.7536218-.5808111-.9556951-.9905858-2.0777736-1.2529307-3.4299185-.2382929-1.2310573-.1639099-3.6940689-.0280607-5.4283125.0155893-.1986733.1162513-.8565827.2231491-1.5526122.0173709-.1098757.0351872-.228721.0534489-.3480147-1.5705062 2.6388128-4.7921372 8.0258658-8.0208948 9.8731245-.8939325.5121557-1.7611405.8005236-2.6519551.8825941-.975442.0887976-1.8266153-.0856583-2.5967246-.5354763-.5968458-.3493602-1.3722999-1.383538-1.7451058-1.8804457-.533598-.7112775-.9424819-1.5588908-1.2480313-2.5903778-.2414107-.8144262-.3768146-1.6826692-.4137834-2.6545093-.0592391-1.5593393.0872999-3.1590411.4498614-4.8914908.4258094-2.0329263 1.045371-4.0528469 1.84265-6.0041513 1.0440348-2.5558453 2.2328269-4.7340768 3.6354145-6.6580243.7518475-1.0319355 1.477416-1.9620677 2.3717939-2.6136984 1.403033-1.0234145 2.97443-1.7974782 4.6157559-2.0499683.5327071-.0820704 3.3490175-.4466787 6.0882724.7076898 1.4016968.5910869 2.4372688 1.8799972 3.1013711 3.3088309.2164679.4664115.389286 1.0135481.2102322 1.5369157-.199097.5816689-.8012877.9628706-1.369182 1.0081664-.5678943.0448472-1.1001561-.1861162-1.5647159-.4834535s-.8850243-.6655333-1.3656188-.9364108c-1.7361976-.9781188-3.9365097-.5135011-5.4312967 1.0866491-1.2364506 1.3238912-2.3000833 2.8518374-3.1601648 4.5376459-1.7397609 3.4101857-2.9895738 6.9235201-3.7142515 10.4422362-.2325026 1.1297025-.343409 2.1185846-.3603345 3.2020944l.0111352.1636925c.0115806.1852192.0267244.4350185.0654748.6798845.0463224.2919557.1171422.5641786.2106777.8108385.1518839.3977952.3812687.5139496.7736725.3861349.1772721-.0587499.3514264-.1663833.5474056-.3390453.7799082-.6866116 1.4569273-1.3705323 2.0711439-2.0934701 1.0208736-1.2019066 1.9566743-2.5347672 2.753508-3.6886872.9429273-1.3651507 1.828397-2.7738031 2.7094126-4.1802132.9959308-1.5889385 2.0056691-3.5779145 3.2920054-5.1569865.5946188-.7305619 1.2484767-1.3732232 1.9882982-1.8486041 1.240014-.7969359 2.9526051-.9144357 3.8300575.1399234.828903.9951607.6409411 2.5769236.4093293 3.9676372-.706416 4.2456902-1.593222 8.5429547-1.4604906 12.7837117l.0044541.1995703c.0356326 2.1652258.3692426 2.7114654.6418319 2.7886027.8458285.2381389 1.6609239-.565524 2.0738164-1.0655709 2.3112185-2.792639 3.6554578-4.5479608 5.5096884-7.5675268.0047799-.0077825.0095616-.0155769.0143451-.0233831zm-33.6299916-20.7270409c1.3638371.9153326 1.3148423 2.438794 1.14826 3.921893-.2846153 2.5231069-4.8326693 26.9594823-10.7307528 40.1970483-1.4141682 3.1742892-5.4219431 9.7336495-13.4437287 9.7336495-4.327132 0-7.8329329-2.6083167-8.596361-3.9165113-.8845789-1.5162858-.8992773-2.6531639-.0579029-3.0742797.8729983-.4363638 1.8533398.3717838 2.7178753.8032145 1.2101717.6049895 2.6372567.9112963 4.2050904 1.0633285 5.0028149.4843504 9.0702744-4.7183803 13.0718136-19.516631.7861439-2.9065509 1.8119169-7.1307144 2.4564213-9.8054051.8841335-3.6631243 1.9949793-8.0056845 3.1868893-12.4289699.1095702-.4067646.2137955-.9162295.3233657-1.4552936.4364991-2.1405597.9803415-4.8049355 2.6590816-5.7449341.9166482-.5135011 2.0898511-.4282913 3.0599482.2228909zm4.9079431-11.77065694c.1220416 1.05884383-.0409775 1.98180046-.483267 2.74241-.3189116.548482-.7171057.97946414-1.1830018 1.27994084-.8712166.5632816-1.8435408.8399892-3.0590573.8713823-.0427591.0013454-.086409.0022423-.130059.0022423-.5950641 0-1.2319966-.1282631-1.943312-.3906196-.4529793-.1672803-1.0275547-.6014018-1.1901284-1.71720163-.2445286-1.66742116.0325148-3.03302026.8231127-4.05688322.4895027-.63503722 1.105501-1.08306135 1.8827367-1.37053229.6284697-.2309634 1.2680746-.33545752 1.9009984-.3063068.7451664.03363545 1.5072583.30451291 2.2631145.80545681.6262427.41438869 1.0021665 1.1346357 1.1188632 2.14011129zm119.3983321 25.36807734 2.01814-4.2658715c.479704-.9561436 1.794101-2.5737843 3.869254-2.3993284 2.089851.1753528 2.113012 1.7961328 2.116575 2.3804926.016035 2.448212-2.839471 7.9778792-3.546333 11.6172345-.283279 1.4579844-2.005669 7.1405808 1.037799 8.5577543.965198.4493695 1.954002.3825471 2.9192-.2139215.444962-.2744652.834693-.6350372 1.272974-.9207142.438726-.2852286 1.004839-.5224706 1.503249-.4771749.720669.0645801 1.221753.5327855 1.039581 1.4306276-.182172.8978422-1.129998 1.8768579-1.84265 2.4827444-2.118803 1.8015145-5.067399 2.6145953-7.591077 1.9015239-1.773166-.5013924-3.247019-1.8508465-3.952099-3.4675903-.768327-1.7620488-.699289-3.543382-.30065-5.6736269-2.022149 4.2098124-4.177475 7.0437108-6.144839 8.0527741-1.835969.9408956-3.831839 1.1207331-5.476728.4942169-2.256433-.8592736-3.703562-3.136169-3.872371-6.0893611-.100217-1.7638428.01069-3.5900233.338955-5.5843809.390177-2.3715232.815541-3.9622555 1.599457-6.2772712 1.751342-4.9408227 4.368555-9.4869895 9.395422-11.7324919 2.808739-1.2548263 5.958659-1.5916293 8.828418-.9440348.512664.1152575 1.035127.2713259 1.411051.6242739.376369.3529479.566112.9525558.314903 1.4449787-.227603.4466787-.728241.6776421-1.187902.8704853-1.412386.5946747-5.586298 1.0261054-9.443525 5.5633028-.884579 1.0400079-1.549127 2.2446054-2.165125 3.4514451-1.406151 2.7563127-5.351124 11.3916528-3.083555 15.8853483.147875.2933011.400421.4305337.709979.4502665 1.252486.0789312 3.643432-4.1600319 4.602394-5.9718612l.326929-.614856c.966979-1.8024114 4.020692-7.7150743 5.302574-10.5749841z" fill="#117058"/><path d="m26.481707 54.5511303c.043891-.2212121.1303692-.4424242.3911074-.4424242.3046292 0 .4345638.2654545.4345638.4866666.1738255 1.4157576 1.5209731 3.0527273 3.4330537 3.7606061.9560402.353497 2.3466443.1769697 2.8681208.0438.5649329-.1765273.9564748.0884848 1.0864094.3986242.0873473.2212122.1303691.619394-.3911074 1.1060606-.3041946.2650122-1.8686242 1.4157576-4.3017466.5309091-2.6073826-1.0175757-3.9110739-3.9818182-3.5204011-5.8842424" fill="#74c04c"/><path d="m23.8309985 33.13762c1.0864094-.6636364 4.4325503-2.8315152 8.1263423-2.8315152 3.9110738 0 6.5619127 1.3715152 6.5184563 3.3624243-.0434563 2.0793939-4.0848993 3.2739394-7.4310402 3.3181818-8.6912752.0884849-15.8615772-2.6987879-18.7731544-13.6709091-.2607382-.9733333-.4345637-1.2830303-.9560403-1.2830303-.6518456 0-.8256711.7963637-.8256711 1.6369697-.1738255 8.8484849 7.7352349 18.5375758 19.6422819 18.4048485 10.7337248-.1327273 12.254698-5.3975758 12.2981543-7.6981818.0430219-2.3006061-2.085906-6.3709091-10.1692265-6.3709091-4.4321157 0-8.7342969 2.5218182-9.7337936 4.070303-.6518456.9733334.3041946 1.6812121 1.3036913 1.0618182" fill="#fac53c"/><path d="m28.2636357 46.9413448c-.1308037.1765273-.2172818.2654546-.2172818.4866667 0 .309697.30376.5309091.6079547.4866667.0873473 0 .17426-.0442424.2611728-.0884849 1.3471476-1.0175757 2.3901006-1.1945454 4.1718121-1.0175757 1.5639949.1769697 2.5639261 1.150303 2.3466443 2.0351515-.2611729.9733333-1.9120806 1.769697-3.9110739 1.6812121-3.3461409-.1327273-8.4739933-1.0175757-10.1257701-8.3175757-.1303691-.5751516-.3037601-.8410485-.6079547-.8410485-.391542.0446848-.4345638.3986242-.4784547 1.3272727-.0864782 4.6901394 3.3900319 10.3089273 10.0388574 11.0606061 4.5190285.5313515 6.9960419-1.9462243 7.3436929-4.1141031.2172819-1.5042424-.7383238-3.9375757-4.1713775-4.38-3.1292936-.3543818-4.8675486 1.2830303-5.2582215 1.6812121" fill="#b1d461"/><path d="m2.01581091 1.01757576c-.17382551-.30969697-.52147651-.57515152-.9125839-.57515152-.56493288 0-1.21677852.48666667-1.08640939 1.06181818 1.6078859 7.87515152 8.95201342 23.00606058 28.85503358 23.35999998 14.8186241.2654546 19.3380872-7.4769697 19.4684564-12.1224242.1303691-3.76060608-1.8686242-11.32606062-15.600839-11.54727275-10.3426174-.17696969-17.5129194 6.06121213-19.425 8.18484849-.2172819.22121212-.347651.61939394-.347651.92909086 0 .7521213.6518457 1.2830304 1.3036913 1.1945455.3911074-.0442424.695302-.2654545.9994966-.4866667 5.9535235-4.77818178 12.2981544-5.83999996 16.6872484-5.75151512 5.2147651.08848485 10.5598993 2.56606061 10.4295302 6.41515152-.1303692 3.8490909-5.1713088 6.4593939-12.2981544 6.3266667-14.2971477-.2654546-21.55436242-5.1763637-28.07281879-16.98909094" fill="#f5804b"/><path d="m40.3877473 59.8157133-.1303691-1.5927272-.6518456 1.5927272h-.2172819l-.6518457-1.5484848-.1303691 1.5931697h-.3041946l.2172819-2.1240788h.3041946l.7391929 1.6816545.6948675-1.6816545h.3041946l.1738255 2.1240788h-.347651zm-2.3031879-2.1236363v.2654545h-.7387584v1.8581818h-.3041946v-1.8581818h-.7383238v-.2654545z" fill="#117159"/></g></svg>